<?xml version="1.0" encoding="UTF-8" standalone="no" ?>
<!DOCTYPE svg PUBLIC "-//W3C//DTD SVG 1.1//EN" "http://www.w3.org/Graphics/SVG/1.1/DTD/svg11.dtd">
<svg xmlns="http://www.w3.org/2000/svg" xmlns:xlink="http://www.w3.org/1999/xlink" version="1.1" width="1080" height="1080" viewBox="0 0 1080 1080" xml:space="preserve">
<desc>Created with Fabric.js 5.2.4</desc>
<defs>
</defs>
<rect x="0" y="0" width="100%" height="100%" fill="transparent"></rect>
<g transform="matrix(1 0 0 1 540 540)" id="565ad572-4c6c-4fe5-89f0-44909555ece3"  >
<rect style="stroke: none; stroke-width: 1; stroke-dasharray: none; stroke-linecap: butt; stroke-dashoffset: 0; stroke-linejoin: miter; stroke-miterlimit: 4; fill: rgb(255,255,255); fill-rule: nonzero; opacity: 1; visibility: hidden;" vector-effect="non-scaling-stroke"  x="-540" y="-540" rx="0" ry="0" width="1080" height="1080" />
</g>
<g transform="matrix(1 0 0 1 540 540)" id="c58530d5-1563-4f4e-bcf6-34c93f146e71"  >
</g>
<g transform="matrix(NaN NaN NaN NaN 0 0)"  >
<g style=""   >
</g>
</g>
<g transform="matrix(49.09 0 0 49.09 540 540)"  >
<path style="stroke: none; stroke-width: 1; stroke-dasharray: none; stroke-linecap: butt; stroke-dashoffset: 0; stroke-linejoin: miter; stroke-miterlimit: 4; fill: rgb(0,101,252); fill-rule: nonzero; opacity: 1;"  transform=" translate(-11, -11)" d="M 21.352 3.68479 C 20.0187 3.09424 18.6842 2.86957 17.3505 2.86957 C 13.1166 2.8692 8.88305 5.1323 4.64915 5.1323 C 3.58732 5.1323 2.52618 4.99001 1.46435 4.63431 C 1.34507 4.59438 1.22545 4.57551 1.10858 4.57551 C 0.516992 4.57551 0 5.05898 0 5.7301 L 0 17.2456 C 0 17.704 0.248527 18.1384 0.647615 18.3149 C 1.981 18.9058 3.31542 19.1304 4.64915 19.1304 C 8.88305 19.1304 13.117 16.8673 17.3509 16.8673 C 18.4127 16.8673 19.4738 17.0096 20.5356 17.3653 C 20.6549 17.4053 20.7745 17.4241 20.8914 17.4241 C 21.483 17.4241 22 16.9407 22 16.2695 L 22 4.75445 C 21.9997 4.29566 21.7511 3.86155 21.352 3.68479 Z M 1.64997 6.50721 C 2.34159 6.69015 3.06345 6.78198 3.80594 6.83134 C 3.60382 7.8981 2.71558 8.70207 1.64997 8.70207 L 1.64997 6.50721 Z M 1.64997 16.8517 L 1.64997 15.1175 C 2.83142 15.1175 3.78738 16.1073 3.83997 17.3461 C 3.06551 17.2804 2.34159 17.1171 1.64997 16.8517 Z M 10.9998 14.4845 C 9.48082 14.4845 8.24987 12.9241 8.24987 11 C 8.24987 9.07556 9.48116 7.51553 10.9998 7.51553 C 12.5185 7.51553 13.7498 9.07556 13.7498 11 C 13.7498 12.9248 12.5181 14.4845 10.9998 14.4845 Z M 20.3497 15.4928 C 19.7474 15.3335 19.1222 15.2442 18.4825 15.1864 C 18.6842 14.2398 19.4278 13.5212 20.3497 13.3978 L 20.3497 15.4928 Z M 20.3497 6.92281 C 19.2879 6.78089 18.4639 5.8448 18.4312 4.68875 C 19.1029 4.76752 19.7406 4.91488 20.3497 5.14827 L 20.3497 6.92281 Z" stroke-linecap="round" />
</g>
</svg>