<?xml version="1.0" encoding="UTF-8" standalone="no" ?>
<!DOCTYPE svg PUBLIC "-//W3C//DTD SVG 1.1//EN" "http://www.w3.org/Graphics/SVG/1.1/DTD/svg11.dtd">
<svg xmlns="http://www.w3.org/2000/svg" xmlns:xlink="http://www.w3.org/1999/xlink" version="1.1" width="1080" height="1080" viewBox="0 0 1080 1080" xml:space="preserve">
<desc>Created with Fabric.js 5.2.4</desc>
<defs>
</defs>
<rect x="0" y="0" width="100%" height="100%" fill="transparent"></rect>
<g transform="matrix(1 0 0 1 540 540)" id="565ad572-4c6c-4fe5-89f0-44909555ece3"  >
<rect style="stroke: none; stroke-width: 1; stroke-dasharray: none; stroke-linecap: butt; stroke-dashoffset: 0; stroke-linejoin: miter; stroke-miterlimit: 4; fill: rgb(255,255,255); fill-rule: nonzero; opacity: 1; visibility: hidden;" vector-effect="non-scaling-stroke"  x="-540" y="-540" rx="0" ry="0" width="1080" height="1080" />
</g>
<g transform="matrix(1 0 0 1 540 540)" id="c58530d5-1563-4f4e-bcf6-34c93f146e71"  >
</g>
<g transform="matrix(NaN NaN NaN NaN 0 0)"  >
<g style=""   >
</g>
</g>
<g transform="matrix(49.09 0 0 49.09 540 540)"  >
<path style="stroke: none; stroke-width: 1; stroke-dasharray: none; stroke-linecap: butt; stroke-dashoffset: 0; stroke-linejoin: miter; stroke-miterlimit: 4; fill: rgb(0,101,252); fill-rule: nonzero; opacity: 1;"  transform=" translate(-10.72, -11)" d="M 12.7396 2.0625 C 12.7396 3.2016 11.8362 4.125 10.7228 4.125 C 9.60937 4.125 8.70601 3.2016 8.70601 2.0625 C 8.70601 0.923398 9.60937 0 10.7228 0 C 11.8362 0 12.7396 0.923398 12.7396 2.0625 Z M 10.3867 15.125 L 10.3867 20.625 C 10.3867 21.3855 9.78584 22 9.04214 22 C 8.29845 22 7.69762 21.3855 7.69762 20.625 L 7.69762 11.0387 L 6.4972 13.084 C 6.11485 13.7328 5.28881 13.9434 4.65226 13.5523 C 4.01569 13.1613 3.80979 12.3191 4.1923 11.666 L 6.6409 7.50234 C 7.36989 6.26055 8.6808 5.5 10.0968 5.5 L 11.3488 5.5 C 12.7648 5.5 14.0757 6.26055 14.8068 7.50234 L 17.2522 11.666 C 17.6345 12.3191 17.4286 13.1613 16.7942 13.5523 C 16.1555 13.9434 15.332 13.7328 14.9497 13.084 L 13.748 11.0387 L 13.748 20.625 C 13.748 21.3855 13.1472 22 12.4035 22 C 11.6598 22 11.0589 21.3855 11.0589 20.625 L 11.0589 15.125 L 10.3867 15.125 Z" stroke-linecap="round" />
</g>
</svg>