<?xml version="1.0" encoding="UTF-8" standalone="no" ?>
<!DOCTYPE svg PUBLIC "-//W3C//DTD SVG 1.1//EN" "http://www.w3.org/Graphics/SVG/1.1/DTD/svg11.dtd">
<svg xmlns="http://www.w3.org/2000/svg" xmlns:xlink="http://www.w3.org/1999/xlink" version="1.1" width="1080" height="1080" viewBox="0 0 1080 1080" xml:space="preserve">
<desc>Created with Fabric.js 5.2.4</desc>
<defs>
</defs>
<rect x="0" y="0" width="100%" height="100%" fill="transparent"></rect>
<g transform="matrix(1 0 0 1 540 540)" id="565ad572-4c6c-4fe5-89f0-44909555ece3"  >
<rect style="stroke: none; stroke-width: 1; stroke-dasharray: none; stroke-linecap: butt; stroke-dashoffset: 0; stroke-linejoin: miter; stroke-miterlimit: 4; fill: rgb(255,255,255); fill-rule: nonzero; opacity: 1; visibility: hidden;" vector-effect="non-scaling-stroke"  x="-540" y="-540" rx="0" ry="0" width="1080" height="1080" />
</g>
<g transform="matrix(1 0 0 1 540 540)" id="c58530d5-1563-4f4e-bcf6-34c93f146e71"  >
</g>
<g transform="matrix(NaN NaN NaN NaN 0 0)"  >
<g style=""   >
</g>
</g>
<g transform="matrix(45 0 0 45 540 540)"  >
<g style=""   >
		<g transform="matrix(1 0 0 1 0 0)"  >
<circle style="stroke: rgb(217,217,217); stroke-width: 1; stroke-dasharray: none; stroke-linecap: butt; stroke-dashoffset: 0; stroke-linejoin: miter; stroke-miterlimit: 4; fill: none; fill-rule: nonzero; opacity: 1;" vector-effect="non-scaling-stroke"  cx="0" cy="0" r="11.5" />
</g>
		<g transform="matrix(1 0 0 1 0 0)"  >
<path style="stroke: none; stroke-width: 1; stroke-dasharray: none; stroke-linecap: butt; stroke-dashoffset: 0; stroke-linejoin: miter; stroke-miterlimit: 4; fill: rgb(0,101,252); fill-rule: nonzero; opacity: 1;" vector-effect="non-scaling-stroke"  transform=" translate(-12, -12)" d="M 13.3333 15.6829 L 12.6667 15.6829 L 12.6667 11.0074 C 12.6667 10.6381 12.3681 10.3395 12 10.3395 L 10.6667 10.3395 C 10.2985 10.3395 10 10.6381 10 11.0074 C 10 11.3766 10.2985 11.6565 10.6667 11.6565 L 11.3333 11.6565 L 11.3333 15.6641 L 10.6667 15.6641 C 10.2985 15.6641 10 15.9628 10 16.3321 C 10 16.7013 10.2985 17 10.6667 17 L 13.3333 17 C 13.7015 17 14 16.7013 14 16.3321 C 14 15.9628 13.7021 15.6829 13.3333 15.6829 Z M 12 9.00359 C 12.5523 9.00359 13 8.55503 13 8.00169 C 13 7.44835 12.5521 7 12 7 C 11.4479 7 11 7.44856 11 8.0019 C 11 8.55524 11.4477 9.00359 12 9.00359 Z" stroke-linecap="round" />
</g>
</g>
</g>
</svg>