<?xml version="1.0" encoding="UTF-8" standalone="no" ?>
<!DOCTYPE svg PUBLIC "-//W3C//DTD SVG 1.1//EN" "http://www.w3.org/Graphics/SVG/1.1/DTD/svg11.dtd">
<svg xmlns="http://www.w3.org/2000/svg" xmlns:xlink="http://www.w3.org/1999/xlink" version="1.1" width="1080" height="1080" viewBox="0 0 1080 1080" xml:space="preserve">
<desc>Created with Fabric.js 5.2.4</desc>
<defs>
</defs>
<rect x="0" y="0" width="100%" height="100%" fill="transparent"></rect>
<g transform="matrix(1 0 0 1 540 540)" id="565ad572-4c6c-4fe5-89f0-44909555ece3"  >
<rect style="stroke: none; stroke-width: 1; stroke-dasharray: none; stroke-linecap: butt; stroke-dashoffset: 0; stroke-linejoin: miter; stroke-miterlimit: 4; fill: rgb(255,255,255); fill-rule: nonzero; opacity: 1; visibility: hidden;" vector-effect="non-scaling-stroke"  x="-540" y="-540" rx="0" ry="0" width="1080" height="1080" />
</g>
<g transform="matrix(1 0 0 1 540 540)" id="c58530d5-1563-4f4e-bcf6-34c93f146e71"  >
</g>
<g transform="matrix(NaN NaN NaN NaN 0 0)"  >
<g style=""   >
</g>
</g>
<g transform="matrix(49.09 0 0 49.09 540 540)"  >
<path style="stroke: none; stroke-width: 1; stroke-dasharray: none; stroke-linecap: butt; stroke-dashoffset: 0; stroke-linejoin: miter; stroke-miterlimit: 4; fill: rgb(0,101,252); fill-rule: nonzero; opacity: 1;"  transform=" translate(-11, -9.17)" d="M 0 6.22829 L 0 5.98543 C 0 3.05861 2.17078 0.562237 5.13047 0.0815519 C 7.05117 -0.236253 9.08359 0.385957 10.4844 1.75306 L 11 2.25468 L 11.477 1.75306 C 12.9164 0.385957 14.9102 -0.236253 16.8695 0.0815519 C 19.8301 0.562237 22 3.05861 22 5.98543 L 22 6.22829 C 22 7.96595 21.2609 9.62825 19.9547 10.8132 L 12.1902 17.8769 C 11.868 18.17 11.4426 18.3333 11 18.3333 C 10.5574 18.3333 10.132 18.17 9.80977 17.8769 L 2.04488 10.8132 C 0.740352 9.62825 0.0000128906 7.96595 0.0000128906 6.22829 L 0 6.22829 Z" stroke-linecap="round" />
</g>
</svg>