<?xml version="1.0" encoding="UTF-8" standalone="no" ?>
<!DOCTYPE svg PUBLIC "-//W3C//DTD SVG 1.1//EN" "http://www.w3.org/Graphics/SVG/1.1/DTD/svg11.dtd">
<svg xmlns="http://www.w3.org/2000/svg" xmlns:xlink="http://www.w3.org/1999/xlink" version="1.1" width="1080" height="1080" viewBox="0 0 1080 1080" xml:space="preserve">
<desc>Created with Fabric.js 5.2.4</desc>
<defs>
</defs>
<rect x="0" y="0" width="100%" height="100%" fill="transparent"></rect>
<g transform="matrix(1 0 0 1 540 540)" id="565ad572-4c6c-4fe5-89f0-44909555ece3"  >
<rect style="stroke: none; stroke-width: 1; stroke-dasharray: none; stroke-linecap: butt; stroke-dashoffset: 0; stroke-linejoin: miter; stroke-miterlimit: 4; fill: rgb(255,255,255); fill-rule: nonzero; opacity: 1; visibility: hidden;" vector-effect="non-scaling-stroke"  x="-540" y="-540" rx="0" ry="0" width="1080" height="1080" />
</g>
<g transform="matrix(1 0 0 1 540 540)" id="c58530d5-1563-4f4e-bcf6-34c93f146e71"  >
</g>
<g transform="matrix(NaN NaN NaN NaN 0 0)"  >
<g style=""   >
</g>
</g>
<g transform="matrix(56.84 0 0 56.84 540 540)"  >
<path style="stroke: none; stroke-width: 1; stroke-dasharray: none; stroke-linecap: butt; stroke-dashoffset: 0; stroke-linejoin: miter; stroke-miterlimit: 4; fill: rgb(0,101,252); fill-rule: nonzero; opacity: 1;"  transform=" translate(-9.5, -10.04)" d="M 6.89752 0.212729 C 7.21091 -0.0735102 7.69707 -0.0695891 8.01046 0.21665 C 9.11939 1.23221 10.16 2.32619 11.1323 3.51036 C 11.5743 2.94572 12.0765 2.33011 12.6189 1.82821 C 12.9364 1.53805 13.4265 1.53805 13.7439 1.83214 C 15.1341 3.12609 16.3114 4.83568 17.139 6.45901 C 17.9547 8.05881 18.4971 9.6939 18.4971 10.8467 C 18.4971 15.85 14.4872 20.0769 9.49707 20.0769 C 4.45064 20.0769 0.49707 15.8461 0.49707 10.8428 C 0.49707 9.33708 1.21225 7.4981 2.32118 5.67872 C 3.44216 3.83189 5.0252 1.90664 6.89752 0.212729 Z M 9.56537 16.3127 C 10.5819 16.3127 11.4819 16.0382 12.3297 15.4893 C 14.0212 14.3365 14.4752 12.0309 13.4587 10.2193 C 13.2779 9.86643 12.8158 9.84291 12.5547 10.1409 L 11.5422 11.2898 C 11.277 11.5878 10.7989 11.5799 10.5497 11.2702 C 9.8868 10.4468 8.70153 8.97635 8.02653 8.14116 C 7.77341 7.82747 7.29127 7.82355 7.03412 8.13723 C 5.67609 9.80369 4.99305 10.8545 4.99305 12.0348 C 4.99707 14.7207 7.03011 16.3127 9.56537 16.3127 Z" stroke-linecap="round" />
</g>
</svg>